<svg width="332" height="76" viewBox="0 0 332 76" fill="none" xmlns="http://www.w3.org/2000/svg">
<path fill-rule="evenodd" clip-rule="evenodd" d="M246.399 10.9398C242.695 12.7031 236.989 18.5343 236.989 20.5567C236.989 21.5601 239.366 22.271 241.96 22.0434C247.001 21.6006 251.339 19.222 252.461 16.2853C253.032 14.7901 253.045 14.4748 252.589 13.1654C252.044 11.6024 250.234 10.0852 248.921 10.0912C248.511 10.093 247.376 10.475 246.399 10.9398ZM89.6181 11.2551C88.9302 11.6013 88.7065 12.021 88.6252 13.1185C88.5169 14.5803 88.8919 15.2112 90.747 16.6894C92.4078 18.0127 92.8137 18.9788 92.8176 21.6177C92.8251 27.005 91.362 54.7285 91.0009 56.0419C90.7452 56.9718 89.9782 58.0501 88.6973 59.2804C86.5744 61.3202 86.2715 62.4248 87.5247 63.5586C88.1973 64.1671 88.8695 64.235 94.2342 64.235C99.5992 64.235 100.271 64.1671 100.944 63.5586C102.066 62.5434 101.869 61.393 100.276 59.6649C97.765 56.9416 97.8162 57.4021 98.286 41.791C98.5161 34.134 98.781 27.7926 98.874 27.6992C98.9674 27.6058 102.146 34.8715 105.937 43.8443C109.728 52.8175 113.093 60.3974 113.415 60.6882C114.214 61.4118 116.207 61.3501 117.494 60.5618C118.396 60.0093 119.732 57.3815 126.194 43.4562C133.757 27.1599 133.831 27.0185 134.054 28.5762C134.178 29.4411 134.331 35.7411 134.395 42.576C134.524 56.404 134.634 55.6783 132.001 58.4005C130.087 60.3797 129.625 62.1621 130.739 63.2756C131.738 64.274 134.529 64.5112 143.513 64.3603C150.252 64.247 151.051 64.1693 151.725 63.5586C152.464 62.89 152.718 61.2045 152.26 60.0115C152.143 59.7072 151.251 58.8863 150.278 58.1872C147.214 55.9861 147.277 56.339 146.599 37.3254C146.273 28.1885 146.11 20.1626 146.236 19.4905C146.399 18.6202 146.97 17.8334 148.217 16.7597C150.324 14.9449 150.973 13.6383 150.396 12.3725C150.176 11.8892 149.584 11.3371 149.08 11.1457C148.577 10.9544 145.321 10.7978 141.844 10.7978C136.194 10.7978 135.433 10.8688 134.674 11.4657C134.129 11.8946 131.23 17.6764 126.571 27.6268C122.581 36.148 119.204 42.9975 119.068 42.848C118.931 42.6985 116.063 36.1849 112.695 28.3735C105.404 11.466 105.547 11.7604 104.367 11.2228C103.047 10.6217 90.8237 10.6483 89.6181 11.2551ZM168.808 27.3321C165.494 28.0493 162.225 29.7852 159.882 32.0711C157.746 34.1557 157.055 35.6431 157.803 36.5446C158.29 37.1308 159.773 37.2579 160.093 36.7409C160.417 36.2172 165.613 34.3421 167.484 34.074C169.827 33.7381 172.582 34.5828 174.032 36.0816C174.654 36.7242 175.563 38.1551 176.051 39.2612L176.939 41.2722L172.429 41.2733C165.526 41.2747 161.15 42.5625 157.686 45.6115C155.264 47.7433 154.078 50.4262 154.086 53.7584C154.091 56.0319 154.245 56.703 155.134 58.3249C157.368 62.3979 160.995 64.4036 166.641 64.6884C171.867 64.9522 176.656 63.4971 179.745 60.706L181.198 59.394L181.895 60.7493C183.358 63.5948 185.324 64.7679 188.628 64.7672C192.527 64.7668 197.036 61.768 196.791 59.339C196.678 58.2141 196.24 57.8392 194.648 57.5047C194.067 57.3826 193.469 56.8969 193.156 56.2922C192.87 55.7372 191.491 51.3855 190.093 46.6216C187.193 36.7356 185.609 32.996 183.333 30.6647C179.956 27.2039 174.831 26.0279 168.808 27.3321ZM212.131 27.3296C204.673 28.937 198.563 34.9368 196.861 42.3239C196.184 45.2653 196.34 50.0008 197.207 52.7806C198.696 57.5559 202.801 61.975 207.319 63.6651C212.913 65.7578 219.815 65.3989 225.058 62.7423C229.738 60.3712 234.133 53.8873 232.301 52.0563C231.596 51.3507 230.997 51.5535 228.647 53.2926C225.535 55.5955 223.866 56.2023 220.578 56.2261C216.984 56.2521 214.462 55.3246 212.329 53.1925C207.285 48.1488 206.365 37.4102 210.667 33.7907C211.288 33.2677 212.351 32.7361 213.027 32.6094C216.509 31.9561 218.945 34.2491 220.852 39.9748C221.978 43.3561 223.059 44.7394 224.981 45.2568C229.374 46.4395 232.816 43.1953 232.25 38.4044C231.958 35.9349 230.87 33.7683 228.847 31.6291C225.035 27.5991 218.582 25.9395 212.131 27.3296ZM247.82 27.0168C247.429 27.1041 245.591 27.6715 243.736 28.2772C237.469 30.3235 234.858 31.7842 234.858 33.2439C234.858 33.6089 235.617 34.7185 236.545 35.7098L238.232 37.5121L238.341 46.2577C238.401 51.0678 238.35 55.5409 238.228 56.1977C238.096 56.9139 237.376 58.0664 236.432 59.0752C235.313 60.2717 234.86 61.055 234.863 61.7864C234.871 63.2468 235.272 63.7091 236.848 64.0745C238.718 64.5084 251.071 64.4998 252.591 64.0638C254.978 63.3793 255.05 61.6299 252.797 59.0926C251.92 58.1062 251.122 56.9427 251.021 56.5063C250.921 56.0703 250.799 49.4291 250.75 41.7484C250.664 28.3891 250.631 27.7613 249.971 27.2795C249.267 26.7647 249.06 26.7395 247.82 27.0168ZM271.434 26.9976C264.721 28.2985 257.571 33.6824 259.003 36.3582C259.532 37.3449 260.272 37.2604 263.306 35.8671C270.887 32.3857 275.964 34.0144 277.997 40.5799C278.257 41.4192 278.245 41.4231 276 41.2488C273.178 41.0294 267.671 41.513 265.437 42.1762C259.154 44.0421 255.455 48.3235 255.455 53.7293C255.455 58.0785 257.453 61.1207 261.682 63.211C264.053 64.3823 264.698 64.5382 267.796 64.6873C269.751 64.7814 272.12 64.6756 273.235 64.4441C275.764 63.9193 279.34 62.2274 281.28 60.6378C282.241 59.8503 282.798 59.5787 282.798 59.8971C282.798 60.8388 284.914 63.3256 286.33 64.0478C289.894 65.8654 296.303 63.9779 297.885 60.6449C298.608 59.1224 298.308 58.086 297.067 57.815C295.432 57.4579 295.284 57.373 294.674 56.4427C294.348 55.9442 292.896 51.502 291.45 46.5709C289.902 41.2967 288.236 36.4121 287.405 34.7075C284.87 29.5132 281.262 27.1929 275.341 26.9497C273.681 26.8815 271.923 26.9028 271.434 26.9976ZM307.833 27.2813C303.8 28.2929 300.902 30.4243 299.431 33.4619C298.31 35.7758 298.308 39.4174 299.426 41.8659C300.838 44.9575 303.168 46.7367 310.377 50.2287C317.87 53.8582 319.729 55.2636 319.729 57.2974C319.729 59.2818 318.766 59.9756 316.021 59.9682C312.922 59.96 309.592 58.2433 304.992 54.2825C299.883 49.8826 298.797 49.4764 297.489 51.4736C296.782 52.5526 297.192 54.5119 299.179 59.5311C300.821 63.6821 301.153 64.2481 302.238 64.7424C303.472 65.3048 303.936 65.2188 305.141 64.2048L306.232 63.2873L309.518 64.0883C314.089 65.2022 320.396 65.2086 323.458 64.1022C329.417 61.9494 332.777 57.1848 331.847 52.2061C331.067 48.0359 327.754 45.2976 318.244 40.9662C312.905 38.5343 310.755 37.1325 310.16 35.6963C309.136 33.2247 311.75 31.3471 315.189 32.0846C317.419 32.5629 320.658 34.204 324.081 36.5911C327.41 38.9125 328.575 39.2352 329.669 38.1413C330.684 37.1265 330.454 35.8018 328.56 31.7466C326.402 27.1272 325.073 26.0808 322.925 27.3083C321.795 27.9545 320.266 27.9559 316.711 27.3136C313.28 26.6937 310.221 26.6827 307.833 27.2813ZM175.633 45.9648C177.311 46.431 177.849 47.2118 178.98 50.8253C180.048 54.2342 179.93 55.1869 178.244 56.7772C174.273 60.5217 166.928 58.6629 165.651 53.5905C164.293 48.1995 169.462 44.2512 175.633 45.9648ZM278.089 46.5293C279.22 47.3652 280.965 51.7363 281 53.822C281.063 57.5022 275.102 60.003 270.902 58.0583C268.201 56.8081 266.818 54.6777 266.818 51.7669C266.818 47.853 269.976 45.4826 274.893 45.7045C276.448 45.7748 277.401 46.0209 278.089 46.5293Z" fill="black"/>
<path d="M37.8419 0C16.9752 0 0 16.9752 0 37.8419C0 58.7087 16.9752 75.6839 37.8419 75.6839C58.7087 75.6839 75.6839 58.7087 75.6839 37.8419C75.6839 16.9752 58.7087 0 37.8419 0ZM37.8419 73.2425C18.3228 73.2425 2.44142 57.3611 2.44142 37.8419C2.44142 18.3228 18.3228 2.44142 37.8419 2.44142C57.3611 2.44142 73.2425 18.3228 73.2425 37.8419C73.2425 57.3611 57.3611 73.2425 37.8419 73.2425Z" fill="black"/>
<path d="M61.3283 14.7486C61.2698 14.6766 61.2136 14.6033 61.1477 14.5362C61.0818 14.4703 61.0073 14.4153 60.9365 14.3555C54.9843 8.50221 46.8288 4.88281 37.8419 4.88281C28.8551 4.88281 20.702 8.50221 14.7498 14.3543C14.6778 14.4141 14.6033 14.469 14.5362 14.5362C14.469 14.6033 14.4141 14.6766 14.3555 14.7486C8.50221 20.6995 4.88281 28.8551 4.88281 37.8419C4.88281 46.8288 8.50221 54.9843 14.3555 60.9353C14.4141 61.0073 14.4703 61.0805 14.5362 61.1477C14.585 61.1965 14.6424 61.2319 14.6936 61.2759C20.6495 67.1609 28.8282 70.801 37.8419 70.801C46.8556 70.801 55.0344 67.1609 60.9902 61.2759C61.0415 61.2307 61.0989 61.1965 61.1477 61.1477C61.2148 61.0805 61.2698 61.0073 61.3283 60.9353C67.1816 54.9843 70.801 46.8288 70.801 37.8419C70.801 28.8551 67.1816 20.6995 61.3283 14.7486ZM61.4077 57.2109L57.6919 49.778C58.8686 47.8298 59.7622 45.6996 60.3261 43.434L68.2144 40.8058C67.6138 46.9985 65.1577 52.6552 61.4077 57.2109ZM59.3764 59.4436C59.2324 59.5583 59.042 59.5913 58.8747 59.5095L52.079 56.1123C53.583 54.9379 54.9355 53.5842 56.111 52.0803L59.5095 58.8772C59.5937 59.0432 59.5583 59.2336 59.4448 59.3764C59.4216 59.3984 59.3996 59.4216 59.3764 59.4436ZM16.2391 59.3764C16.1243 59.2336 16.0901 59.042 16.1744 58.8759L19.5716 52.0803C20.7459 53.5842 22.0997 54.9367 23.6036 56.1123L16.8067 59.5107C16.6431 59.5962 16.4502 59.5595 16.3074 59.446C16.2854 59.4216 16.2623 59.3996 16.2391 59.3764ZM7.47071 40.8046L15.3589 43.434C15.9229 45.6996 16.8165 47.8298 17.9932 49.778L14.2762 57.2109C10.5261 52.6552 8.07008 46.9972 7.47071 40.8046ZM14.2762 18.473L17.992 25.9058C16.8152 27.8541 15.9217 29.9842 15.3577 32.2499L7.47071 34.878C8.07008 28.6854 10.5261 23.0286 14.2762 18.473ZM16.3074 16.2403C16.4502 16.1255 16.6431 16.0938 16.8091 16.1744L23.6048 19.5716C22.1009 20.7459 20.7484 22.0997 19.5728 23.6036L16.1744 16.8067C16.0901 16.6407 16.1255 16.4502 16.2391 16.3074C16.2623 16.2854 16.2842 16.2623 16.3074 16.2403ZM59.4448 16.3074C59.5595 16.4502 59.5937 16.6419 59.5095 16.8079L56.1123 23.6036C54.9379 22.0997 53.5842 20.7471 52.0803 19.5716L58.8772 16.1731C59.0395 16.0889 59.2336 16.1243 59.3777 16.2391C59.3996 16.2623 59.4216 16.2854 59.4448 16.3074ZM68.2131 34.8793L60.3249 32.2499C59.761 29.9842 58.8674 27.8541 57.6906 25.9058L61.4077 18.473C65.1577 23.0286 67.6138 28.6866 68.2131 34.8793ZM68.0361 38.2911L60.8413 40.6886C60.9572 39.7536 61.0354 38.8075 61.0354 37.8419C61.0354 36.8763 60.9572 35.9303 60.8425 34.9952L68.0361 37.3927C68.2302 37.4586 68.3596 37.6381 68.3596 37.8419C68.3596 38.0458 68.2302 38.2252 68.0361 38.2911ZM37.8419 58.594C26.399 58.594 17.0899 49.2848 17.0899 37.8419C17.0899 26.399 26.399 17.0899 37.8419 17.0899C49.2848 17.0899 58.594 26.399 58.594 37.8419C58.594 49.2848 49.2848 58.594 37.8419 58.594ZM40.6886 60.8425L38.2911 68.0361C38.1605 68.4243 37.5233 68.4231 37.3927 68.0374L34.9952 60.8425C35.9303 60.9572 36.8763 61.0354 37.8419 61.0354C38.8075 61.0354 39.7536 60.9572 40.6886 60.8425ZM34.9952 14.8413L37.3927 7.64772C37.5233 7.25953 38.1605 7.26075 38.2911 7.6465L40.6886 14.8413C39.7536 14.7266 38.8075 14.6485 37.8419 14.6485C36.8763 14.6485 35.9303 14.7266 34.9952 14.8413ZM49.778 17.9932C47.8298 16.8165 45.6996 15.9229 43.434 15.3589L40.8058 7.47071C46.9985 8.07008 52.6564 10.5261 57.2109 14.2774L49.778 17.9932ZM32.2499 15.3589C29.9842 15.9229 27.8541 16.8165 25.9058 17.9932L18.473 14.2762C23.0286 10.5249 28.6854 8.07008 34.8793 7.47071L32.2499 15.3589ZM7.64772 37.3927L14.8426 34.9952C14.7266 35.9303 14.6485 36.8763 14.6485 37.8419C14.6485 38.8075 14.7266 39.7536 14.8413 40.6886L7.64772 38.2911C7.45362 38.2252 7.32423 38.0458 7.32423 37.8419C7.32423 37.6381 7.45362 37.4586 7.64772 37.3927ZM25.9058 57.6906C27.8541 58.8674 29.9842 59.761 32.2499 60.3249L34.878 68.2131C28.6854 67.6138 23.0274 65.1577 18.473 61.4065L25.9058 57.6906ZM43.434 60.3249C45.6996 59.761 47.8298 58.8674 49.778 57.6906L57.2109 61.4077C52.6552 65.1589 46.9985 67.6138 40.8046 68.2131L43.434 60.3249Z" fill="black"/>
<path d="M48.871 23.2606C48.7367 23.1568 48.6073 23.0494 48.4645 22.9566C45.4652 20.8094 41.8043 19.5313 37.8419 19.5313C33.8795 19.5313 30.2185 20.8094 27.2193 22.9566C27.0764 23.0494 26.9471 23.1568 26.8128 23.2606C22.3999 26.6065 19.5312 31.8885 19.5312 37.8419C19.5312 47.9384 27.7454 56.1526 37.8419 56.1526C47.9383 56.1526 56.1525 47.9384 56.1525 37.8419C56.1525 31.8885 53.2838 26.6065 48.871 23.2606ZM48.8282 28.0763C48.8282 30.0953 47.1852 31.7384 45.1661 31.7384C43.1471 31.7384 41.504 30.0953 41.504 28.0763C41.504 26.0572 43.1471 24.4141 45.1661 24.4141C45.8766 24.4141 46.5358 24.6265 47.0973 24.9781C47.2389 25.0806 47.378 25.1856 47.5172 25.2918C48.3119 25.9644 48.8282 26.9557 48.8282 28.0763ZM48.2521 36.6212C49.2433 36.6212 50.049 37.4269 50.049 38.4181C50.049 39.1041 49.6681 39.7194 49.0565 40.0258L47.6075 40.7497V42.7248C47.6075 45.0002 46.0377 46.8996 43.9283 47.4391C43.8966 46.7421 43.6805 46.0927 43.3106 45.5507C45.1393 44.496 46.3868 42.5417 46.3868 40.2833V39.5473C47.1559 38.6867 47.7589 37.6906 48.1752 36.6212H48.2521ZM36.6212 48.8283V53.6489C35.7874 53.5854 34.9732 53.456 34.1797 53.2668V47.6076C34.1797 46.9338 34.7266 46.3869 35.4005 46.3869H40.2833C40.9571 46.3869 41.504 46.9338 41.504 47.6076V53.268C40.7105 53.456 39.8963 53.5854 39.0626 53.6501V48.8283H36.6212ZM26.6272 40.0258C26.0157 39.7194 25.6348 39.1029 25.6348 38.4181C25.6348 37.4269 26.4405 36.6212 27.4317 36.6212H27.5098C27.9248 37.6906 28.5291 38.6879 29.2981 39.5473V40.2833C29.2981 42.5417 30.5457 44.496 32.3743 45.5507C32.0044 46.0927 31.7884 46.7421 31.7566 47.4391C29.646 46.8996 28.0762 45.0002 28.0762 42.7248V40.7497L26.6272 40.0258ZM28.5865 24.9781C29.148 24.6265 29.8072 24.4141 30.5176 24.4141C32.5367 24.4141 34.1797 26.0572 34.1797 28.0763C34.1797 30.0953 32.5367 31.7384 30.5176 31.7384C28.4986 31.7384 26.8555 30.0953 26.8555 28.0763C26.8555 26.9557 27.3719 25.9644 28.1665 25.2918C28.3045 25.1856 28.4449 25.0806 28.5865 24.9781ZM43.9454 40.2833C43.9454 42.3024 42.3023 43.9455 40.2833 43.9455H35.4005C33.3814 43.9455 31.7383 42.3024 31.7383 40.2833H43.9454ZM44.6266 37.8419H39.0626V32.9591H36.6212V37.8419H31.0572C30.1331 36.7799 29.5411 35.4554 29.3616 34.0626C29.7364 34.1359 30.1221 34.1798 30.5176 34.1798C31.4661 34.1798 32.3536 33.943 33.1556 33.556C33.042 33.7416 32.959 33.9467 32.959 34.1798C32.959 34.8536 33.5059 35.4005 34.1797 35.4005C34.8536 35.4005 35.4005 34.8536 35.4005 34.1798C35.4005 33.506 34.8536 32.9591 34.1797 32.9591C34.1614 32.9591 34.1468 32.9689 34.1297 32.9689C35.3199 32.0875 36.1915 30.7984 36.4979 29.297H39.1859C39.4923 30.7997 40.3639 32.0875 41.554 32.9689C41.537 32.9689 41.5223 32.9591 41.504 32.9591C40.8302 32.9591 40.2833 33.506 40.2833 34.1798C40.2833 34.8536 40.8302 35.4005 41.504 35.4005C42.1778 35.4005 42.7247 34.8536 42.7247 34.1798C42.7247 33.9467 42.6417 33.7416 42.5282 33.556C43.3302 33.943 44.2176 34.1798 45.1661 34.1798C45.5616 34.1798 45.9474 34.1359 46.3221 34.0626C46.1427 35.4554 45.5506 36.7799 44.6266 37.8419ZM42.4244 22.6539C40.7887 23.4852 39.5631 25.0086 39.1859 26.8556H36.4979C36.1219 25.0086 34.8951 23.484 33.2593 22.6539C34.712 22.2144 36.2488 21.9727 37.8419 21.9727C39.4349 21.9727 40.9718 22.2144 42.4244 22.6539ZM21.9727 37.8419C21.9727 34.6681 22.9187 31.7152 24.5313 29.2323C24.8218 30.7386 25.6763 32.035 26.8555 32.9286V33.1691C26.8555 33.5255 26.8824 33.8795 26.9226 34.2311C24.8279 34.4862 23.1934 36.255 23.1934 38.4181C23.1934 40.0331 24.0906 41.487 25.5371 42.2096L25.6348 42.2585V42.7248C25.6348 46.3466 28.2801 49.3544 31.7383 49.9391V52.4868C26.0095 50.0905 21.9727 44.4301 21.9727 37.8419ZM43.9454 52.4868V49.9391C47.4037 49.3556 50.049 46.3478 50.049 42.7248V42.2585L50.1478 42.2096C51.5931 41.4857 52.4904 40.0331 52.4904 38.4181C52.4904 36.2562 50.8558 34.4862 48.7611 34.2311C48.8014 33.8795 48.8282 33.5255 48.8282 33.1691V32.9286C50.0074 32.035 50.8619 30.7399 51.1525 29.2323C52.765 31.7152 53.7111 34.6681 53.7111 37.8419C53.7111 44.4301 49.6742 50.0905 43.9454 52.4868Z" fill="black"/>
<path d="M45.1663 29.297C45.8404 29.297 46.387 28.7505 46.387 28.0763C46.387 27.4021 45.8404 26.8556 45.1663 26.8556C44.4921 26.8556 43.9456 27.4021 43.9456 28.0763C43.9456 28.7505 44.4921 29.297 45.1663 29.297Z" fill="black"/>
<path d="M30.5176 29.297C31.1918 29.297 31.7383 28.7505 31.7383 28.0763C31.7383 27.4021 31.1918 26.8556 30.5176 26.8556C29.8434 26.8556 29.2969 27.4021 29.2969 28.0763C29.2969 28.7505 29.8434 29.297 30.5176 29.297Z" fill="black"/>
<path d="M48.8284 14.6485C49.5026 14.6485 50.0491 14.102 50.0491 13.4278C50.0491 12.7536 49.5026 12.2071 48.8284 12.2071C48.1542 12.2071 47.6077 12.7536 47.6077 13.4278C47.6077 14.102 48.1542 14.6485 48.8284 14.6485Z" fill="black"/>
<path d="M26.8555 14.6485C27.5297 14.6485 28.0762 14.102 28.0762 13.4278C28.0762 12.7536 27.5297 12.2071 26.8555 12.2071C26.1813 12.2071 25.6348 12.7536 25.6348 13.4278C25.6348 14.102 26.1813 14.6485 26.8555 14.6485Z" fill="black"/>
<path d="M48.8284 63.4768C49.5026 63.4768 50.0491 62.9303 50.0491 62.2561C50.0491 61.5819 49.5026 61.0354 48.8284 61.0354C48.1542 61.0354 47.6077 61.5819 47.6077 62.2561C47.6077 62.9303 48.1542 63.4768 48.8284 63.4768Z" fill="black"/>
<path d="M26.8555 63.4768C27.5297 63.4768 28.0762 62.9303 28.0762 62.2561C28.0762 61.5819 27.5297 61.0354 26.8555 61.0354C26.1813 61.0354 25.6348 61.5819 25.6348 62.2561C25.6348 62.9303 26.1813 63.4768 26.8555 63.4768Z" fill="black"/>
<path d="M12.207 29.297C12.8812 29.297 13.4277 28.7505 13.4277 28.0763C13.4277 27.4021 12.8812 26.8556 12.207 26.8556C11.5329 26.8556 10.9863 27.4021 10.9863 28.0763C10.9863 28.7505 11.5329 29.297 12.207 29.297Z" fill="black"/>
<path d="M63.4768 29.297C64.151 29.297 64.6975 28.7505 64.6975 28.0763C64.6975 27.4021 64.151 26.8556 63.4768 26.8556C62.8026 26.8556 62.2561 27.4021 62.2561 28.0763C62.2561 28.7505 62.8026 29.297 63.4768 29.297Z" fill="black"/>
<path d="M13.4277 50.049C14.1019 50.049 14.6484 49.5025 14.6484 48.8283C14.6484 48.1541 14.1019 47.6076 13.4277 47.6076C12.7536 47.6076 12.207 48.1541 12.207 48.8283C12.207 49.5025 12.7536 50.049 13.4277 50.049Z" fill="black"/>
<path d="M62.2561 50.049C62.9303 50.049 63.4768 49.5025 63.4768 48.8283C63.4768 48.1541 62.9303 47.6076 62.2561 47.6076C61.5819 47.6076 61.0354 48.1541 61.0354 48.8283C61.0354 49.5025 61.5819 50.049 62.2561 50.049Z" fill="black"/>
</svg>
